#!OML:ASF E:\emotionWalksFemale\Project 1\Capture day 1\Session 1\Female1.ASF
:FULLY-SPECIFIED
:DEGREES
233
root 8.53408 15.1185 42.2574 -180.419 -11.5103 -178.727
lowerback 6.1758 2.98706 1.94819
upperback -3.54479 4.12676 -0.225488
thorax -7.01756 1.91225 -1.82041
lowerneck -7.08143 -0.191382 -5.37103
upperneck 20.0161 -1.58727 6.35543
head 7.36213 -0.950533 2.80604
rclavicle 4.20927e-014 1.68967e-015
rhumerus -49.5496 19.9745 -104.334
rradius 36.048
rwrist 4.64507
rhand 162.382 -69.1131
rfingers 7.12502
rthumb -171.361 -39.3099
lclavicle 4.20927e-014 1.68967e-015
lhumerus -42.799 -7.32732 91.579
lradius 38.1295
lwrist -12.0281
lhand 1.06692 -38.1707
lfingers 7.12502
lthumb 26.6119 -10.0208
rfemur -5.59414 10.3621 27.2257
rtibia 27.4954
rfoot -28.2792 -28.3472
rtoes 20.4251
lfemur -11.2841 -22.6021 -23.6109
ltibia 31.5826
lfoot -24.1434 13.4101
ltoes -35.5222
234
root 8.5298 15.1162 42.2572 -180.496 -11.327 -178.691
lowerback 6.16871 2.96001 1.93203
upperback -3.45459 4.08962 -0.238867
thorax -6.91899 1.89831 -1.81734
lowerneck -6.77447 -0.794703 -5.69882
upperneck 19.5417 -2.36735 6.42341
head 7.20802 -1.33929 2.81439
rclavicle -2.67241e-014 -9.14409e-015
rhumerus -49.3656 20.0756 -104.371
rradius 35.9739
rwrist 4.54415
rhand 162.571 -69.0452
rfingers 7.12502
rthumb -171.178 -39.2496
lclavicle -2.67241e-014 -9.14409e-015
lhumerus -42.9373 -7.79326 91.999
lradius 37.6331
lwrist -14.2072
lhand -4.89629 -38.7677
lfingers 7.12502
lthumb 20.8931 -9.87282
rfemur -5.55898 10.4282 27.258
rtibia 27.5763
rfoot -28.3563 -28.1797
rtoes 21.1328
lfemur -11.2083 -22.3369 -23.6031
ltibia 31.5905
lfoot -24.1683 13.3411
ltoes -35.1778
235
root 8.52578 15.1119 42.2601 -180.593 -11.2136 -178.687
lowerback 6.22427 2.84923 1.82909
upperback -3.42203 3.93173 -0.27539
thorax -6.9269 1.82525 -1.7823
lowerneck -6.35563 -0.948433 -6.70974
upperneck 19.2509 -2.74369 7.81734
head 7.08736 -1.4954 3.41187
rclavicle 5.3237e-014 5.56597e-015
rhumerus -49.3772 20.2231 -104.588
rradius 35.9374
rwrist 4.26359
rhand 162.601 -68.9908
rfingers 7.12502
rthumb -171.149 -39.1964
lclavicle 5.3237e-014 5.56597e-015
lhumerus -42.8026 -7.36986 91.495
lradius 38.1558
lwrist -11.6967
lhand -0.0604545 -37.8176
lfingers 7.12502
lthumb 25.5325 -9.50857
rfemur -5.50385 10.463 27.2701
rtibia 27.6568
rfoot -28.3615 -28.157
rtoes 21.4562
lfemur -11.0839 -22.2636 -23.6531
ltibia 31.5831
lfoot -24.1894 13.4704
ltoes -35.5737
236
root 8.5203 15.1152 42.2657 -180.647 -11.0435 -178.738
lowerback 6.43678 2.83391 1.79571
upperback -3.41369 3.91154 -0.316135
thorax -7.04082 1.81425 -1.81641
lowerneck -5.88607 -1.43046 -7.27389
upperneck 18.6436 -3.39581 8.24879
head 6.87459 -1.81699 3.59259
rclavicle 1.58903e-014 -1.19271e-015
rhumerus -49.3961 20.1813 -104.525
rradius 36.0486
rwrist 3.9681
rhand 162.325 -69.0252
rfingers 7.12502
rthumb -171.416 -39.2197
lclavicle 1.58903e-014 -1.19271e-015
lhumerus -42.8728 -7.61803 91.6274
lradius 38.0142
lwrist -12.1142
lhand -0.299793 -38.1482
lfingers 7.12502
lthumb 25.3032 -9.8065
rfemur -5.48988 10.3688 27.1764
rtibia 27.6896
rfoot -28.2215 -28.0088
rtoes 21.1774
lfemur -10.9447 -22.3399 -23.7799
ltibia 31.5966
lfoot -24.3134 13.7181
ltoes -35.8142
237
root 8.51534 15.1119 42.2652 -180.633 -10.9522 -178.724
lowerback 6.54443 2.7582 1.78487
upperback -3.47384 3.80929 -0.340397
thorax -7.17027 1.7604 -1.83201
lowerneck -5.76799 -1.83418 -7.5588
upperneck 18.567 -3.95324 8.35355
head 6.88386 -2.10181 3.63012
rclavicle 6.49777e-015 3.37934e-015
rhumerus -49.5678 20.3238 -104.723
rradius 36.1994
rwrist 3.40211
rhand 161.672 -69.0353
rfingers 7.12502
rthumb -172.046 -39.205
lclavicle 6.49777e-015 3.37934e-015
lhumerus -43.0102 -7.69013 91.704
lradius 38.02
lwrist -12.3397
lhand -2.33393 -37.8986
lfingers 7.12502
lthumb 23.3531 -9.29525
rfemur -5.5204 10.3377 27.1739
rtibia 27.7247
rfoot -28.1785 -27.9369
rtoes 21.111
lfemur -10.9917 -22.4355 -23.7747
ltibia 31.5894
lfoot -24.2002 13.931
ltoes -35.8948
238
root 8.50851 15.1103 42.2617 -180.677 -10.6016 -178.603
lowerback 6.58556 2.71768 1.81283
upperback -3.52168 3.76047 -0.299852
thorax -7.24811 1.73363 -1.80331
lowerneck -5.58421 -2.16393 -7.87302
upperneck 18.5095 -4.43656 8.54789
head 6.8851 -2.35124 3.70849
rclavicle -8.31168e-015 -1.98785e-015
rhumerus -50.2888 21.1843 -105.746
rradius 35.2162
rwrist 7.26402
rhand 162.268 -69.9336
rfingers 7.12502
rthumb -171.471 -40.1258
lclavicle -8.31168e-015 -1.98785e-015
lhumerus -43.1986 -7.47996 91.6284
lradius 38.1832
lwrist -12.0395
lhand 0.333015 -37.4269
lfingers 7.12502
lthumb 25.9093 -9.17234
rfemur -5.51651 10.4 27.265
rtibia 27.7402
rfoot -27.4052 -27.9798
rtoes 19.2788
lfemur -10.8808 -22.6117 -23.7279
ltibia 31.5934
lfoot -24.32 14.3034
ltoes -35.1621
239
root 8.50243 15.1091 42.2549 -180.801 -10.3873 -178.539
lowerback 6.55726 2.64514 1.71505
upperback -3.47145 3.65974 -0.209305
thorax -7.19405 1.69311 -1.63862
lowerneck -5.30013 -2.4501 -8.32499
upperneck 18.349 -4.84772 8.79644
head 6.83576 -2.57148 3.83459
rclavicle 2.28727e-014 -3.97569e-016
rhumerus -50.1582 21.2456 -105.653
rradius 35.5722
rwrist 5.15137
rhand 161.325 -69.5266
rfingers 7.12502
rthumb -172.382 -39.6838
lclavicle 2.28727e-014 -3.97569e-016
lhumerus -43.3723 -7.49841 91.7628
lradius 38.1441
lwrist -12.3167
lhand -0.280898 -38.0326
lfingers 7.12502
lthumb 25.3213 -9.69346
rfemur -5.38761 10.4238 27.3407
rtibia 27.7949
rfoot -26.1848 -28.2392
rtoes 16.0432
lfemur -10.6277 -22.8072 -23.7763
ltibia 31.5798
lfoot -24.5286 14.545
ltoes -34.2828
240
root 8.5023 15.1036 42.2486 -181.039 -10.3632 -178.569
lowerback 6.67454 2.52813 1.47655
upperback -3.3842 3.48883 -0.141876
thorax -7.19312 1.62426 -1.41792
lowerneck -4.96604 -2.67773 -8.78016
upperneck 18.1305 -5.18646 9.09978
head 6.75619 -2.75375 3.98598
rclavicle -6.99474e-015 1.59028e-015
rhumerus -50.0068 21.3187 -105.546
rradius 35.4791
rwrist 5.11358
rhand 161.492 -69.5769
rfingers 7.12502
rthumb -172.22 -39.74
lclavicle -6.99474e-015 1.59028e-015
lhumerus -43.3807 -7.44787 91.7715
lradius 38.1861
lwrist -11.802
lhand 0.683575 -38.2484
lfingers 7.12502
lthumb 26.245 -10.0433
rfemur -5.06797 10.448 27.403
rtibia 27.8279
rfoot -26.5324 -28.2274
rtoes 16.2056
lfemur -10.3157 -22.6014 -23.8963
ltibia 31.5923
lfoot -24.6327 14.1446
ltoes -33.5001
241
root 8.49074 15.1024 42.2558 -181.067 -9.84809 -178.643
lowerback 6.86754 2.56623 1.47375
upperback -3.4101 3.54126 -0.17836
thorax -7.32866 1.64677 -1.47226
lowerneck -4.84061 -2.91863 -9.1529
upperneck 18.1164 -5.55777 9.37313
head 6.78225 -2.94652 4.11
rclavicle 2.56929e-014 4.77083e-015
rhumerus -49.9293 21.4347 -105.559
rradius 35.4226
rwrist 5.15773
rhand 161.697 -69.6747
rfingers 7.12502
rthumb -172.022 -39.8452
lclavicle 2.56929e-014 4.77083e-015
lhumerus -43.5589 -7.60719 91.9444
lradius 38.0208
lwrist -12.5356
lhand -1.53982 -38.3781
lfingers 7.12502
lthumb 24.1147 -9.87356
rfemur -5.16912 10.3481 27.1865
rtibia 27.8829
rfoot -27.7207 -27.3509
rtoes 18.9013
lfemur -10.2712 -22.3483 -24.0503
ltibia 31.6222
lfoot -24.7049 14.5041
ltoes -33.4988
